<mxfile host="app.diagrams.net" modified="2022-11-27T19:06:43.807Z" agent="5.0 (Macintosh; Intel Mac OS X 10_15_7) AppleWebKit/605.1.15 (KHTML, like Gecko) Version/16.1 Safari/605.1.15" etag="peWJgqD4dZJqviids7_N" version="20.6.0" type="github">
  <diagram id="tlcVaqSGDZQ4AQKlqPh9" name="Seite-1">
    <mxGraphModel dx="2066" dy="1014" grid="1" gridSize="10" guides="1" tooltips="1" connect="1" arrows="1" fold="1" page="1" pageScale="1" pageWidth="827" pageHeight="1169" math="0" shadow="0">
      <root>
        <mxCell id="0" />
        <mxCell id="1" parent="0" />
        <mxCell id="yn6zyk8mV2KRgJzfLN-i-7" style="edgeStyle=orthogonalEdgeStyle;rounded=0;orthogonalLoop=1;jettySize=auto;html=1;fontFamily=Times New Roman;fontSize=15;" parent="1" source="yn6zyk8mV2KRgJzfLN-i-1" target="yn6zyk8mV2KRgJzfLN-i-2" edge="1">
          <mxGeometry relative="1" as="geometry" />
        </mxCell>
        <mxCell id="yn6zyk8mV2KRgJzfLN-i-1" value="Selection" style="rounded=0;whiteSpace=wrap;html=1;fontFamily=Times New Roman;fontSize=15;" parent="1" vertex="1">
          <mxGeometry x="30" y="60" width="90" height="60" as="geometry" />
        </mxCell>
        <mxCell id="yn6zyk8mV2KRgJzfLN-i-8" style="edgeStyle=orthogonalEdgeStyle;rounded=0;orthogonalLoop=1;jettySize=auto;html=1;fontFamily=Times New Roman;fontSize=15;" parent="1" source="yn6zyk8mV2KRgJzfLN-i-2" target="yn6zyk8mV2KRgJzfLN-i-5" edge="1">
          <mxGeometry relative="1" as="geometry" />
        </mxCell>
        <mxCell id="yn6zyk8mV2KRgJzfLN-i-2" value="Expansion&lt;span style=&quot;caret-color: rgba(0, 0, 0, 0); color: rgba(0, 0, 0, 0); font-family: monospace; font-size: 0px; text-align: start;&quot;&gt;%3CmxGraphModel%3E%3Croot%3E%3CmxCell%20id%3D%220%22%2F%3E%3CmxCell%20id%3D%221%22%20parent%3D%220%22%2F%3E%3CmxCell%20id%3D%222%22%20value%3D%22Selection%22%20style%3D%22rounded%3D0%3BwhiteSpace%3Dwrap%3Bhtml%3D1%3BfontFamily%3DTimes%20New%20Roman%3BfontSize%3D15%3B%22%20vertex%3D%221%22%20parent%3D%221%22%3E%3CmxGeometry%20x%3D%2250%22%20y%3D%2260%22%20width%3D%22120%22%20height%3D%2260%22%20as%3D%22geometry%22%2F%3E%3C%2FmxCell%3E%3C%2Froot%3E%3C%2FmxGraphModel%3E&lt;/span&gt;" style="rounded=0;whiteSpace=wrap;html=1;fontFamily=Times New Roman;fontSize=15;" parent="1" vertex="1">
          <mxGeometry x="154" y="60" width="90" height="60" as="geometry" />
        </mxCell>
        <mxCell id="yn6zyk8mV2KRgJzfLN-i-9" style="edgeStyle=orthogonalEdgeStyle;rounded=0;orthogonalLoop=1;jettySize=auto;html=1;entryX=0;entryY=0.5;entryDx=0;entryDy=0;fontFamily=Times New Roman;fontSize=15;" parent="1" source="yn6zyk8mV2KRgJzfLN-i-5" target="yn6zyk8mV2KRgJzfLN-i-6" edge="1">
          <mxGeometry relative="1" as="geometry" />
        </mxCell>
        <mxCell id="yn6zyk8mV2KRgJzfLN-i-5" value="Simulation" style="rounded=0;whiteSpace=wrap;html=1;fontFamily=Times New Roman;fontSize=15;" parent="1" vertex="1">
          <mxGeometry x="270" y="60" width="90" height="60" as="geometry" />
        </mxCell>
        <mxCell id="yn6zyk8mV2KRgJzfLN-i-10" value="repeat" style="edgeStyle=orthogonalEdgeStyle;rounded=0;orthogonalLoop=1;jettySize=auto;html=1;entryX=0;entryY=0.5;entryDx=0;entryDy=0;fontFamily=Times New Roman;fontSize=15;" parent="1" source="yn6zyk8mV2KRgJzfLN-i-6" target="yn6zyk8mV2KRgJzfLN-i-1" edge="1">
          <mxGeometry x="-0.0131" y="-10" relative="1" as="geometry">
            <Array as="points">
              <mxPoint x="500" y="90" />
              <mxPoint x="500" y="40" />
              <mxPoint x="10" y="40" />
              <mxPoint x="10" y="90" />
            </Array>
            <mxPoint as="offset" />
          </mxGeometry>
        </mxCell>
        <mxCell id="yn6zyk8mV2KRgJzfLN-i-6" value="Backup" style="rounded=0;whiteSpace=wrap;html=1;fontFamily=Times New Roman;fontSize=15;" parent="1" vertex="1">
          <mxGeometry x="390" y="60" width="90" height="60" as="geometry" />
        </mxCell>
        <mxCell id="yn6zyk8mV2KRgJzfLN-i-23" style="orthogonalLoop=1;jettySize=auto;html=1;entryX=0.5;entryY=0;entryDx=0;entryDy=0;fontFamily=Times New Roman;fontSize=15;rounded=0;endArrow=none;endFill=0;" parent="1" source="yn6zyk8mV2KRgJzfLN-i-11" target="yn6zyk8mV2KRgJzfLN-i-18" edge="1">
          <mxGeometry relative="1" as="geometry" />
        </mxCell>
        <mxCell id="yn6zyk8mV2KRgJzfLN-i-24" style="edgeStyle=none;rounded=0;orthogonalLoop=1;jettySize=auto;html=1;fontFamily=Times New Roman;fontSize=15;strokeWidth=2;" parent="1" source="yn6zyk8mV2KRgJzfLN-i-11" target="yn6zyk8mV2KRgJzfLN-i-16" edge="1">
          <mxGeometry relative="1" as="geometry" />
        </mxCell>
        <mxCell id="yn6zyk8mV2KRgJzfLN-i-25" style="edgeStyle=none;rounded=0;orthogonalLoop=1;jettySize=auto;html=1;fontFamily=Times New Roman;fontSize=15;entryX=0.5;entryY=0;entryDx=0;entryDy=0;endArrow=none;endFill=0;" parent="1" source="yn6zyk8mV2KRgJzfLN-i-11" target="yn6zyk8mV2KRgJzfLN-i-17" edge="1">
          <mxGeometry relative="1" as="geometry" />
        </mxCell>
        <mxCell id="yn6zyk8mV2KRgJzfLN-i-11" value="" style="ellipse;whiteSpace=wrap;html=1;aspect=fixed;fontFamily=Times New Roman;fontSize=15;" parent="1" vertex="1">
          <mxGeometry x="75" y="130" width="20" height="20" as="geometry" />
        </mxCell>
        <mxCell id="yn6zyk8mV2KRgJzfLN-i-26" style="edgeStyle=none;rounded=0;orthogonalLoop=1;jettySize=auto;html=1;entryX=0.5;entryY=0;entryDx=0;entryDy=0;fontFamily=Times New Roman;fontSize=15;strokeWidth=2;" parent="1" source="yn6zyk8mV2KRgJzfLN-i-16" target="yn6zyk8mV2KRgJzfLN-i-19" edge="1">
          <mxGeometry relative="1" as="geometry" />
        </mxCell>
        <mxCell id="yn6zyk8mV2KRgJzfLN-i-27" style="edgeStyle=none;rounded=0;orthogonalLoop=1;jettySize=auto;html=1;entryX=0.5;entryY=0;entryDx=0;entryDy=0;fontFamily=Times New Roman;fontSize=15;endArrow=none;endFill=0;" parent="1" source="yn6zyk8mV2KRgJzfLN-i-16" target="yn6zyk8mV2KRgJzfLN-i-20" edge="1">
          <mxGeometry relative="1" as="geometry" />
        </mxCell>
        <mxCell id="yn6zyk8mV2KRgJzfLN-i-16" value="" style="ellipse;whiteSpace=wrap;html=1;aspect=fixed;fontFamily=Times New Roman;fontSize=15;" parent="1" vertex="1">
          <mxGeometry x="75" y="170" width="20" height="20" as="geometry" />
        </mxCell>
        <mxCell id="yn6zyk8mV2KRgJzfLN-i-17" value="" style="ellipse;whiteSpace=wrap;html=1;aspect=fixed;fontFamily=Times New Roman;fontSize=15;" parent="1" vertex="1">
          <mxGeometry x="110" y="170" width="20" height="20" as="geometry" />
        </mxCell>
        <mxCell id="yn6zyk8mV2KRgJzfLN-i-18" value="" style="ellipse;whiteSpace=wrap;html=1;aspect=fixed;fontFamily=Times New Roman;fontSize=15;" parent="1" vertex="1">
          <mxGeometry x="40" y="170" width="20" height="20" as="geometry" />
        </mxCell>
        <mxCell id="yn6zyk8mV2KRgJzfLN-i-19" value="" style="ellipse;whiteSpace=wrap;html=1;aspect=fixed;fontFamily=Times New Roman;fontSize=15;" parent="1" vertex="1">
          <mxGeometry x="60" y="210" width="20" height="20" as="geometry" />
        </mxCell>
        <mxCell id="yn6zyk8mV2KRgJzfLN-i-20" value="" style="ellipse;whiteSpace=wrap;html=1;aspect=fixed;fontFamily=Times New Roman;fontSize=15;" parent="1" vertex="1">
          <mxGeometry x="95" y="210" width="20" height="20" as="geometry" />
        </mxCell>
        <mxCell id="yn6zyk8mV2KRgJzfLN-i-28" style="orthogonalLoop=1;jettySize=auto;html=1;entryX=0.5;entryY=0;entryDx=0;entryDy=0;fontFamily=Times New Roman;fontSize=15;rounded=0;endArrow=none;endFill=0;" parent="1" source="yn6zyk8mV2KRgJzfLN-i-31" target="yn6zyk8mV2KRgJzfLN-i-36" edge="1">
          <mxGeometry relative="1" as="geometry" />
        </mxCell>
        <mxCell id="yn6zyk8mV2KRgJzfLN-i-29" style="edgeStyle=none;rounded=0;orthogonalLoop=1;jettySize=auto;html=1;fontFamily=Times New Roman;fontSize=15;strokeWidth=1;endArrow=none;endFill=0;" parent="1" source="yn6zyk8mV2KRgJzfLN-i-31" target="yn6zyk8mV2KRgJzfLN-i-34" edge="1">
          <mxGeometry relative="1" as="geometry" />
        </mxCell>
        <mxCell id="yn6zyk8mV2KRgJzfLN-i-30" style="edgeStyle=none;rounded=0;orthogonalLoop=1;jettySize=auto;html=1;fontFamily=Times New Roman;fontSize=15;entryX=0.5;entryY=0;entryDx=0;entryDy=0;endArrow=none;endFill=0;" parent="1" source="yn6zyk8mV2KRgJzfLN-i-31" target="yn6zyk8mV2KRgJzfLN-i-35" edge="1">
          <mxGeometry relative="1" as="geometry" />
        </mxCell>
        <mxCell id="yn6zyk8mV2KRgJzfLN-i-31" value="" style="ellipse;whiteSpace=wrap;html=1;aspect=fixed;fontFamily=Times New Roman;fontSize=15;" parent="1" vertex="1">
          <mxGeometry x="186.5" y="130" width="20" height="20" as="geometry" />
        </mxCell>
        <mxCell id="yn6zyk8mV2KRgJzfLN-i-32" style="edgeStyle=none;rounded=0;orthogonalLoop=1;jettySize=auto;html=1;entryX=0.5;entryY=0;entryDx=0;entryDy=0;fontFamily=Times New Roman;fontSize=15;strokeWidth=1;endArrow=none;endFill=0;" parent="1" source="yn6zyk8mV2KRgJzfLN-i-34" target="yn6zyk8mV2KRgJzfLN-i-37" edge="1">
          <mxGeometry relative="1" as="geometry" />
        </mxCell>
        <mxCell id="yn6zyk8mV2KRgJzfLN-i-33" style="edgeStyle=none;rounded=0;orthogonalLoop=1;jettySize=auto;html=1;entryX=0.5;entryY=0;entryDx=0;entryDy=0;fontFamily=Times New Roman;fontSize=15;endArrow=none;endFill=0;" parent="1" source="yn6zyk8mV2KRgJzfLN-i-34" target="yn6zyk8mV2KRgJzfLN-i-38" edge="1">
          <mxGeometry relative="1" as="geometry" />
        </mxCell>
        <mxCell id="yn6zyk8mV2KRgJzfLN-i-34" value="" style="ellipse;whiteSpace=wrap;html=1;aspect=fixed;fontFamily=Times New Roman;fontSize=15;" parent="1" vertex="1">
          <mxGeometry x="186.5" y="170" width="20" height="20" as="geometry" />
        </mxCell>
        <mxCell id="yn6zyk8mV2KRgJzfLN-i-35" value="" style="ellipse;whiteSpace=wrap;html=1;aspect=fixed;fontFamily=Times New Roman;fontSize=15;" parent="1" vertex="1">
          <mxGeometry x="221.5" y="170" width="20" height="20" as="geometry" />
        </mxCell>
        <mxCell id="yn6zyk8mV2KRgJzfLN-i-36" value="" style="ellipse;whiteSpace=wrap;html=1;aspect=fixed;fontFamily=Times New Roman;fontSize=15;" parent="1" vertex="1">
          <mxGeometry x="151.5" y="170" width="20" height="20" as="geometry" />
        </mxCell>
        <mxCell id="yn6zyk8mV2KRgJzfLN-i-62" style="edgeStyle=none;rounded=0;orthogonalLoop=1;jettySize=auto;html=1;entryX=1;entryY=0;entryDx=0;entryDy=0;strokeWidth=1;fontFamily=Times New Roman;fontSize=15;endArrow=none;endFill=0;" parent="1" source="yn6zyk8mV2KRgJzfLN-i-37" target="yn6zyk8mV2KRgJzfLN-i-61" edge="1">
          <mxGeometry relative="1" as="geometry" />
        </mxCell>
        <mxCell id="yn6zyk8mV2KRgJzfLN-i-37" value="" style="ellipse;whiteSpace=wrap;html=1;aspect=fixed;fontFamily=Times New Roman;fontSize=15;" parent="1" vertex="1">
          <mxGeometry x="171.5" y="210" width="20" height="20" as="geometry" />
        </mxCell>
        <mxCell id="yn6zyk8mV2KRgJzfLN-i-38" value="" style="ellipse;whiteSpace=wrap;html=1;aspect=fixed;fontFamily=Times New Roman;fontSize=15;" parent="1" vertex="1">
          <mxGeometry x="206.5" y="210" width="20" height="20" as="geometry" />
        </mxCell>
        <mxCell id="yn6zyk8mV2KRgJzfLN-i-61" value="" style="ellipse;whiteSpace=wrap;html=1;aspect=fixed;fontFamily=Times New Roman;fontSize=15;" parent="1" vertex="1">
          <mxGeometry x="151.5" y="240" width="20" height="20" as="geometry" />
        </mxCell>
        <mxCell id="yn6zyk8mV2KRgJzfLN-i-65" style="orthogonalLoop=1;jettySize=auto;html=1;entryX=0.5;entryY=0;entryDx=0;entryDy=0;fontFamily=Times New Roman;fontSize=15;rounded=0;endArrow=none;endFill=0;" parent="1" source="yn6zyk8mV2KRgJzfLN-i-68" target="yn6zyk8mV2KRgJzfLN-i-73" edge="1">
          <mxGeometry relative="1" as="geometry" />
        </mxCell>
        <mxCell id="yn6zyk8mV2KRgJzfLN-i-66" style="edgeStyle=none;rounded=0;orthogonalLoop=1;jettySize=auto;html=1;fontFamily=Times New Roman;fontSize=15;strokeWidth=1;endArrow=none;endFill=0;" parent="1" source="yn6zyk8mV2KRgJzfLN-i-68" target="yn6zyk8mV2KRgJzfLN-i-71" edge="1">
          <mxGeometry relative="1" as="geometry" />
        </mxCell>
        <mxCell id="yn6zyk8mV2KRgJzfLN-i-67" style="edgeStyle=none;rounded=0;orthogonalLoop=1;jettySize=auto;html=1;fontFamily=Times New Roman;fontSize=15;entryX=0.5;entryY=0;entryDx=0;entryDy=0;endArrow=none;endFill=0;" parent="1" source="yn6zyk8mV2KRgJzfLN-i-68" target="yn6zyk8mV2KRgJzfLN-i-72" edge="1">
          <mxGeometry relative="1" as="geometry" />
        </mxCell>
        <mxCell id="yn6zyk8mV2KRgJzfLN-i-68" value="" style="ellipse;whiteSpace=wrap;html=1;aspect=fixed;fontFamily=Times New Roman;fontSize=15;" parent="1" vertex="1">
          <mxGeometry x="305" y="130" width="20" height="20" as="geometry" />
        </mxCell>
        <mxCell id="yn6zyk8mV2KRgJzfLN-i-69" style="edgeStyle=none;rounded=0;orthogonalLoop=1;jettySize=auto;html=1;entryX=0.5;entryY=0;entryDx=0;entryDy=0;fontFamily=Times New Roman;fontSize=15;strokeWidth=1;endArrow=none;endFill=0;" parent="1" source="yn6zyk8mV2KRgJzfLN-i-71" target="yn6zyk8mV2KRgJzfLN-i-75" edge="1">
          <mxGeometry relative="1" as="geometry" />
        </mxCell>
        <mxCell id="yn6zyk8mV2KRgJzfLN-i-70" style="edgeStyle=none;rounded=0;orthogonalLoop=1;jettySize=auto;html=1;entryX=0.5;entryY=0;entryDx=0;entryDy=0;fontFamily=Times New Roman;fontSize=15;endArrow=none;endFill=0;" parent="1" source="yn6zyk8mV2KRgJzfLN-i-71" target="yn6zyk8mV2KRgJzfLN-i-76" edge="1">
          <mxGeometry relative="1" as="geometry" />
        </mxCell>
        <mxCell id="yn6zyk8mV2KRgJzfLN-i-71" value="" style="ellipse;whiteSpace=wrap;html=1;aspect=fixed;fontFamily=Times New Roman;fontSize=15;" parent="1" vertex="1">
          <mxGeometry x="305" y="170" width="20" height="20" as="geometry" />
        </mxCell>
        <mxCell id="yn6zyk8mV2KRgJzfLN-i-72" value="" style="ellipse;whiteSpace=wrap;html=1;aspect=fixed;fontFamily=Times New Roman;fontSize=15;" parent="1" vertex="1">
          <mxGeometry x="340" y="170" width="20" height="20" as="geometry" />
        </mxCell>
        <mxCell id="yn6zyk8mV2KRgJzfLN-i-73" value="" style="ellipse;whiteSpace=wrap;html=1;aspect=fixed;fontFamily=Times New Roman;fontSize=15;" parent="1" vertex="1">
          <mxGeometry x="270" y="170" width="20" height="20" as="geometry" />
        </mxCell>
        <mxCell id="yn6zyk8mV2KRgJzfLN-i-74" style="edgeStyle=none;rounded=0;orthogonalLoop=1;jettySize=auto;html=1;entryX=1;entryY=0;entryDx=0;entryDy=0;strokeWidth=1;fontFamily=Times New Roman;fontSize=15;endArrow=none;endFill=0;" parent="1" source="yn6zyk8mV2KRgJzfLN-i-75" target="yn6zyk8mV2KRgJzfLN-i-77" edge="1">
          <mxGeometry relative="1" as="geometry" />
        </mxCell>
        <mxCell id="yn6zyk8mV2KRgJzfLN-i-75" value="" style="ellipse;whiteSpace=wrap;html=1;aspect=fixed;fontFamily=Times New Roman;fontSize=15;" parent="1" vertex="1">
          <mxGeometry x="290" y="210" width="20" height="20" as="geometry" />
        </mxCell>
        <mxCell id="yn6zyk8mV2KRgJzfLN-i-76" value="" style="ellipse;whiteSpace=wrap;html=1;aspect=fixed;fontFamily=Times New Roman;fontSize=15;" parent="1" vertex="1">
          <mxGeometry x="325" y="210" width="20" height="20" as="geometry" />
        </mxCell>
        <mxCell id="yn6zyk8mV2KRgJzfLN-i-82" style="edgeStyle=none;rounded=0;orthogonalLoop=1;jettySize=auto;html=1;strokeWidth=1;fontFamily=Times New Roman;fontSize=15;endArrow=classic;endFill=1;dashed=1;" parent="1" source="yn6zyk8mV2KRgJzfLN-i-77" edge="1">
          <mxGeometry relative="1" as="geometry">
            <mxPoint x="280" y="280" as="targetPoint" />
          </mxGeometry>
        </mxCell>
        <mxCell id="yn6zyk8mV2KRgJzfLN-i-77" value="" style="ellipse;whiteSpace=wrap;html=1;aspect=fixed;fontFamily=Times New Roman;fontSize=15;" parent="1" vertex="1">
          <mxGeometry x="270" y="240" width="20" height="20" as="geometry" />
        </mxCell>
        <mxCell id="yn6zyk8mV2KRgJzfLN-i-83" value="" style="ellipse;whiteSpace=wrap;html=1;aspect=fixed;fontFamily=Times New Roman;fontSize=15;" parent="1" vertex="1">
          <mxGeometry x="270" y="280" width="20" height="20" as="geometry" />
        </mxCell>
        <mxCell id="yn6zyk8mV2KRgJzfLN-i-84" style="orthogonalLoop=1;jettySize=auto;html=1;entryX=0.5;entryY=0;entryDx=0;entryDy=0;fontFamily=Times New Roman;fontSize=15;rounded=0;endArrow=none;endFill=0;" parent="1" source="yn6zyk8mV2KRgJzfLN-i-87" target="yn6zyk8mV2KRgJzfLN-i-92" edge="1">
          <mxGeometry relative="1" as="geometry" />
        </mxCell>
        <mxCell id="yn6zyk8mV2KRgJzfLN-i-86" style="edgeStyle=none;rounded=0;orthogonalLoop=1;jettySize=auto;html=1;fontFamily=Times New Roman;fontSize=15;entryX=0.5;entryY=0;entryDx=0;entryDy=0;endArrow=none;endFill=0;" parent="1" source="yn6zyk8mV2KRgJzfLN-i-87" target="yn6zyk8mV2KRgJzfLN-i-91" edge="1">
          <mxGeometry relative="1" as="geometry" />
        </mxCell>
        <mxCell id="yn6zyk8mV2KRgJzfLN-i-87" value="" style="ellipse;whiteSpace=wrap;html=1;aspect=fixed;fontFamily=Times New Roman;fontSize=15;" parent="1" vertex="1">
          <mxGeometry x="425" y="130" width="20" height="20" as="geometry" />
        </mxCell>
        <mxCell id="yn6zyk8mV2KRgJzfLN-i-89" style="edgeStyle=none;rounded=0;orthogonalLoop=1;jettySize=auto;html=1;entryX=0.5;entryY=0;entryDx=0;entryDy=0;fontFamily=Times New Roman;fontSize=15;endArrow=none;endFill=0;" parent="1" source="yn6zyk8mV2KRgJzfLN-i-90" target="yn6zyk8mV2KRgJzfLN-i-95" edge="1">
          <mxGeometry relative="1" as="geometry" />
        </mxCell>
        <mxCell id="yn6zyk8mV2KRgJzfLN-i-102" style="edgeStyle=none;rounded=0;orthogonalLoop=1;jettySize=auto;html=1;entryX=0.5;entryY=1;entryDx=0;entryDy=0;strokeWidth=2;fontFamily=Times New Roman;fontSize=15;endArrow=classic;endFill=1;" parent="1" source="yn6zyk8mV2KRgJzfLN-i-90" target="yn6zyk8mV2KRgJzfLN-i-87" edge="1">
          <mxGeometry relative="1" as="geometry" />
        </mxCell>
        <mxCell id="yn6zyk8mV2KRgJzfLN-i-90" value="" style="ellipse;whiteSpace=wrap;html=1;aspect=fixed;fontFamily=Times New Roman;fontSize=15;" parent="1" vertex="1">
          <mxGeometry x="425" y="170" width="20" height="20" as="geometry" />
        </mxCell>
        <mxCell id="yn6zyk8mV2KRgJzfLN-i-91" value="" style="ellipse;whiteSpace=wrap;html=1;aspect=fixed;fontFamily=Times New Roman;fontSize=15;" parent="1" vertex="1">
          <mxGeometry x="460" y="170" width="20" height="20" as="geometry" />
        </mxCell>
        <mxCell id="yn6zyk8mV2KRgJzfLN-i-92" value="" style="ellipse;whiteSpace=wrap;html=1;aspect=fixed;fontFamily=Times New Roman;fontSize=15;" parent="1" vertex="1">
          <mxGeometry x="390" y="170" width="20" height="20" as="geometry" />
        </mxCell>
        <mxCell id="yn6zyk8mV2KRgJzfLN-i-101" style="edgeStyle=none;rounded=0;orthogonalLoop=1;jettySize=auto;html=1;entryX=0;entryY=1;entryDx=0;entryDy=0;strokeWidth=2;fontFamily=Times New Roman;fontSize=15;endArrow=classic;endFill=1;" parent="1" source="yn6zyk8mV2KRgJzfLN-i-94" target="yn6zyk8mV2KRgJzfLN-i-90" edge="1">
          <mxGeometry relative="1" as="geometry" />
        </mxCell>
        <mxCell id="yn6zyk8mV2KRgJzfLN-i-94" value="" style="ellipse;whiteSpace=wrap;html=1;aspect=fixed;fontFamily=Times New Roman;fontSize=15;" parent="1" vertex="1">
          <mxGeometry x="410" y="210" width="20" height="20" as="geometry" />
        </mxCell>
        <mxCell id="yn6zyk8mV2KRgJzfLN-i-95" value="" style="ellipse;whiteSpace=wrap;html=1;aspect=fixed;fontFamily=Times New Roman;fontSize=15;" parent="1" vertex="1">
          <mxGeometry x="445" y="210" width="20" height="20" as="geometry" />
        </mxCell>
        <mxCell id="yn6zyk8mV2KRgJzfLN-i-100" style="edgeStyle=none;rounded=0;orthogonalLoop=1;jettySize=auto;html=1;entryX=0.31;entryY=0.96;entryDx=0;entryDy=0;entryPerimeter=0;strokeWidth=2;fontFamily=Times New Roman;fontSize=15;endArrow=classic;endFill=1;" parent="1" source="yn6zyk8mV2KRgJzfLN-i-97" target="yn6zyk8mV2KRgJzfLN-i-94" edge="1">
          <mxGeometry relative="1" as="geometry" />
        </mxCell>
        <mxCell id="yn6zyk8mV2KRgJzfLN-i-97" value="" style="ellipse;whiteSpace=wrap;html=1;aspect=fixed;fontFamily=Times New Roman;fontSize=15;" parent="1" vertex="1">
          <mxGeometry x="390" y="240" width="20" height="20" as="geometry" />
        </mxCell>
        <mxCell id="yn6zyk8mV2KRgJzfLN-i-99" style="edgeStyle=none;rounded=0;orthogonalLoop=1;jettySize=auto;html=1;entryX=0.5;entryY=1;entryDx=0;entryDy=0;strokeWidth=2;fontFamily=Times New Roman;fontSize=15;endArrow=classic;endFill=1;" parent="1" source="yn6zyk8mV2KRgJzfLN-i-98" target="yn6zyk8mV2KRgJzfLN-i-97" edge="1">
          <mxGeometry relative="1" as="geometry" />
        </mxCell>
        <mxCell id="yn6zyk8mV2KRgJzfLN-i-98" value="" style="ellipse;whiteSpace=wrap;html=1;aspect=fixed;fontFamily=Times New Roman;fontSize=15;" parent="1" vertex="1">
          <mxGeometry x="390" y="280" width="20" height="20" as="geometry" />
        </mxCell>
        <mxCell id="yn6zyk8mV2KRgJzfLN-i-103" value="Selection until &lt;br&gt;Leaf Node" style="text;html=1;align=center;verticalAlign=middle;resizable=0;points=[];autosize=1;strokeColor=none;fillColor=none;fontSize=15;fontFamily=Times New Roman;" parent="1" vertex="1">
          <mxGeometry x="35" y="300" width="110" height="50" as="geometry" />
        </mxCell>
        <mxCell id="yn6zyk8mV2KRgJzfLN-i-104" value="Leaf Node &lt;br&gt;is expanded" style="text;html=1;align=center;verticalAlign=middle;resizable=0;points=[];autosize=1;strokeColor=none;fillColor=none;fontSize=15;fontFamily=Times New Roman;" parent="1" vertex="1">
          <mxGeometry x="156.5" y="300" width="90" height="50" as="geometry" />
        </mxCell>
        <mxCell id="yn6zyk8mV2KRgJzfLN-i-105" value="One simulated&amp;nbsp;&lt;br&gt;game is played" style="text;html=1;align=center;verticalAlign=middle;resizable=0;points=[];autosize=1;strokeColor=none;fillColor=none;fontSize=15;fontFamily=Times New Roman;" parent="1" vertex="1">
          <mxGeometry x="260" y="300" width="110" height="50" as="geometry" />
        </mxCell>
        <mxCell id="yn6zyk8mV2KRgJzfLN-i-106" value="updated results &lt;br&gt;go up to the root" style="text;html=1;align=center;verticalAlign=middle;resizable=0;points=[];autosize=1;strokeColor=none;fillColor=none;fontSize=15;fontFamily=Times New Roman;" parent="1" vertex="1">
          <mxGeometry x="375" y="300" width="120" height="50" as="geometry" />
        </mxCell>
      </root>
    </mxGraphModel>
  </diagram>
</mxfile>
